<?xml version="1.0" encoding="UTF-8"?>
<!DOCTYPE svg PUBLIC "-//W3C//DTD SVG 1.1//EN" "http://www.w3.org/Graphics/SVG/1.1/DTD/svg11.dtd">
<!-- Creator: CorelDRAW X7 -->
<svg xmlns="http://www.w3.org/2000/svg" xml:space="preserve" width="59.224mm" height="18.2387mm" version="1.1" style="shape-rendering:geometricPrecision; text-rendering:geometricPrecision; image-rendering:optimizeQuality; fill-rule:evenodd; clip-rule:evenodd"
viewBox="0 0 5499 1693"
 xmlns:xlink="http://www.w3.org/1999/xlink">
 <defs>
  <style type="text/css">
   <![CDATA[
    .fil0 {fill:#FEFEFE}
   ]]>
  </style>
 </defs>
 <g id="Layer_x0020_1">
  <metadata id="CorelCorpID_0Corel-Layer"/>
  <path class="fil0" d="M1584 714c108,7 167,-2 188,9 10,6 11,24 11,52 1,142 -6,422 5,548 54,12 207,11 259,-2 27,-87 -13,-568 17,-595 23,-18 94,-7 128,-7 65,1 90,33 78,-150l-5 -35c-143,-23 -462,-9 -623,-9 -59,0 -64,9 -63,66 0,40 -5,84 5,123z"/>
  <path class="fil0" d="M3243 1330c189,0 149,-239 150,-459 0,-146 21,-133 -187,-133 -18,0 -32,3 -45,7 -44,216 51,395 -80,375 -46,-73 11,-340 -38,-372 -22,-15 -168,-15 -196,-8 -54,13 -34,132 -34,182 0,449 -11,408 430,408z"/>
  <path class="fil0" d="M5029 1548c155,0 131,22 213,-177l232 -547c39,-92 53,-86 -122,-86 -87,0 -83,64 -134,182l-32 72c-1,1 -2,3 -3,4 -66,-122 -49,-258 -147,-258 -208,0 -219,-15 -180,78 15,35 29,72 44,109 32,76 58,144 89,220 82,201 85,134 1,327 -22,52 -39,76 39,76z"/>
  <path class="fil0" d="M3732 1156c-52,43 -188,4 -212,3 -3,0 -21,-5 -30,6 -16,34 -13,101 0,142 150,63 420,59 484,-65 46,-89 10,-186 -40,-232 -42,-40 -96,-63 -148,-88 -32,-15 -38,-13 -34,-44 42,-26 129,2 182,0 63,-142 37,-157 -111,-161 -394,-10 -413,267 -187,371 36,17 95,25 96,68z"/>
  <path class="fil0" d="M4123 737c-39,5 -49,-6 -74,15 -15,33 -12,98 -1,136 26,14 30,10 63,11 1,91 -16,304 22,368 62,103 245,87 301,52 6,-51 -5,-102 -17,-147 -28,-4 -44,-6 -61,-19l-2 -251c33,-2 65,5 86,-9 23,-33 16,-125 -12,-150l-81 -5c-1,-20 1,-114 -2,-124 -12,-34 -32,-20 -103,-8 -116,19 -121,6 -119,131z"/>
  <path class="fil0" d="M4588 1329c229,0 190,36 190,-194l0 -492c0,-139 22,-130 -117,-130 -154,0 -124,-54 -124,365 0,83 0,167 0,250 0,42 0,83 0,125 -1,57 -11,76 51,76z"/>
  <path class="fil0" d="M2322 1320c42,12 172,20 210,2 34,-33 17,-228 17,-290 0,-168 129,-94 187,-133 6,-18 8,-117 4,-138 -5,-30 -14,-25 -48,-25 -415,-4 -383,1 -383,296 0,76 -14,235 13,288z"/>
  <path class="fil0" d="M1000 1370c89,0 162,72 162,162 0,89 -73,161 -162,161 -89,0 -162,-72 -162,-161 0,-90 73,-162 162,-162zm135 -841l0 -115c0,-228 -187,-414 -414,-414l0 0c-228,0 -414,186 -414,414l0 115 -184 0c-66,0 -136,56 -121,120l128 561c15,64 55,119 122,119l927 0c67,0 107,-55 122,-119l128 -561c15,-64 -55,-120 -122,-120l-172 0zm-143 0l-542 0 0 -124c0,-149 122,-272 271,-272l0 0c149,0 271,123 271,272l0 124zm-553 841c90,0 162,72 162,162 0,89 -72,161 -162,161 -89,0 -161,-72 -161,-161 0,-90 72,-162 161,-162zm210 -242l142 0 0 -321 114 0 0 -113 -371 0 0 113 115 0 0 321z"/>
 </g>
</svg>
